HIERARCHY
ROOT SpineBase
{
  OFFSET 0.000000 0.000000 0.000000
  CHANNELS 6 Xposition Yposition Zposition Zrotation Xrotation Yrotation
  JOINT SpineMid
  {
    OFFSET -0.000000 28.195503 0.000000
    CHANNELS 3 Zrotation Xrotation Yrotation
    JOINT SpineShoulder
    {
      OFFSET -0.063876 20.835832 -0.664138
      CHANNELS 3 Zrotation Xrotation Yrotation
      JOINT Neck
      {
        OFFSET -0.024098 6.851000 -0.492956
        CHANNELS 3 Zrotation Xrotation Yrotation
        JOINT Head
        {
          OFFSET 1.889142 14.103616 0.033859
          CHANNELS 3 Zrotation Xrotation Yrotation
          End Site
          {
            OFFSET 0 0 0
          }
        }
      }
      JOINT ShoulderLeft
      {
        OFFSET -17.640409 -3.605732 -2.149243
        CHANNELS 3 Zrotation Xrotation Yrotation
        JOINT ElbowLeft
        {
          OFFSET -6.150601 -26.358951 2.724186
          CHANNELS 3 Zrotation Xrotation Yrotation
          JOINT WristLeft
          {
            OFFSET 3.074811 -18.410168 -9.630933
            CHANNELS 3 Zrotation Xrotation Yrotation
            JOINT HandLeft
            {
              OFFSET 2.346928 -3.501069 -1.357251
              CHANNELS 3 Zrotation Xrotation Yrotation
              JOINT HandTipLeft
              {
                OFFSET 1.683217 -7.095168 -2.342040
                CHANNELS 3 Zrotation Xrotation Yrotation
                End Site
                {
                  OFFSET 0 0 0
                }
              }
              JOINT ThumbLeft
              {
                OFFSET -2.917029 -2.191543 -1.786547
                CHANNELS 3 Zrotation Xrotation Yrotation
                End Site
                {
                  OFFSET 0 0 0
                }
              }
            }
          }
        }
      }
      JOINT ShoulderRight
      {
        OFFSET 18.670006 -5.470210 2.346589
        CHANNELS 3 Zrotation Xrotation Yrotation
        JOINT ElbowRight
        {
          OFFSET 3.331566 -25.790958 3.358071
          CHANNELS 3 Zrotation Xrotation Yrotation
          JOINT WristRight
          {
            OFFSET -2.717309 -20.231634 -7.237590
            CHANNELS 3 Zrotation Xrotation Yrotation
            JOINT HandRight
            {
              OFFSET -3.598944 -4.866152 -3.093169
              CHANNELS 3 Zrotation Xrotation Yrotation
              JOINT HandTipRight
              {
                OFFSET -0.734848 -4.168797 -2.392890
                CHANNELS 3 Zrotation Xrotation Yrotation
                End Site
                {
                  OFFSET 0 0 0
                }
              }
              JOINT ThumbRight
              {
                OFFSET -2.014922 2.228752 -1.256043
                CHANNELS 3 Zrotation Xrotation Yrotation
                End Site
                {
                  OFFSET 0 0 0
                }
              }
            }
          }
        }
      }
    }
  }
  JOINT HipLeft
  {
    OFFSET -6.602989 0.309747 -4.172284
    CHANNELS 3 Zrotation Xrotation Yrotation
    JOINT KneeLeft
    {
      OFFSET -4.598599 -40.774097 4.420454
      CHANNELS 3 Zrotation Xrotation Yrotation
      JOINT AnkleLeft
      {
        OFFSET 0.215341 -34.592489 11.900604
        CHANNELS 3 Zrotation Xrotation Yrotation
        JOINT FootLeft
        {
          OFFSET -1.676585 -9.233872 -3.555882
          CHANNELS 3 Zrotation Xrotation Yrotation
          End Site
          {
            OFFSET 0 0 0
          }
        }
      }
    }
  }
  JOINT HipRight
  {
    OFFSET 6.667525 -0.085101 -2.611674
    CHANNELS 3 Zrotation Xrotation Yrotation
    JOINT KneeRight
    {
      OFFSET 1.016777 -40.833603 4.577129
      CHANNELS 3 Zrotation Xrotation Yrotation
      JOINT AnkleRight
      {
        OFFSET -0.713381 -32.900817 9.735518
        CHANNELS 3 Zrotation Xrotation Yrotation
        JOINT FootRight
        {
          OFFSET 1.256148 -4.351879 -14.246295
          CHANNELS 3 Zrotation Xrotation Yrotation
          End Site
          {
            OFFSET 0 0 0
          }
        }
      }
    }
  }
}
MOTION
Frames: 10
Frame Time: 0.033333
-5.321245 85.401701 376.292917 0.000000 0.000000 -6.707165 -0.000000 -0.000000 6.707165 -0.000000 0.000000 0.000000 -0.000000 0.000000 0.000000 0.000000 0.000000 0.000000 -0.000000 0.000000 0.000000 -0.000000 0.000000 0.000000 -0.000000 0.000000 0.000000 -0.000000 0.000000 0.000000 0.000000 0.000000 0.000000 0.000000 0.000000 0.000000 -0.000000 0.000000 0.000000 -0.000000 0.000000 0.000000 -0.000000 0.000000 0.000000 -0.000000 0.000000 0.000000 0.000000 0.000000 0.000000 0.000000 0.000000 0.000000 -0.000000 -0.000000 6.707165 -0.000000 0.000000 0.000000 -0.000000 0.000000 0.000000 0.000000 0.000000 0.000000 -0.000000 -0.000000 6.707165 -0.000000 0.000000 0.000000 -0.000000 0.000000 0.000000 0.000000 0.000000 0.000000
-5.809384 85.349712 376.505447 0.254821 -0.225764 -7.007210 -0.280461 0.192989 7.008185 -0.000000 0.000000 0.000000 -0.000000 0.000000 0.000000 0.000000 0.000000 0.000000 -0.000000 0.000000 0.000000 0.290852 -1.862360 -0.462232 -2.467595 -0.590134 -0.305056 2.210568 3.536268 0.980827 0.000000 0.000000 0.000000 0.000000 0.000000 0.000000 -0.000000 0.000000 0.000000 -0.000000 0.000000 0.000000 2.112827 -0.051094 -1.322797 -1.468727 -7.159742 2.394944 0.000000 0.000000 0.000000 0.000000 0.000000 0.000000 -0.280461 0.192989 7.008185 -0.000000 0.000000 0.000000 2.749938 9.954351 -3.021780 0.000000 0.000000 0.000000 0.172519 1.082661 7.086370 -0.559326 -0.826954 -0.087265 -0.125106 -2.027787 -0.189050 0.000000 0.000000 0.000000
-6.241094 85.294250 376.697388 0.453537 -0.430706 -7.198445 -0.503943 0.370466 7.201779 -0.000000 0.000000 0.000000 -0.000000 0.000000 0.000000 0.000000 0.000000 0.000000 -0.016442 1.000336 -0.235184 0.549794 -4.543061 -0.613284 -3.875944 -0.358272 -0.326937 3.413184 5.579481 1.527802 0.000000 0.000000 0.000000 0.000000 0.000000 0.000000 -0.000000 0.000000 0.000000 -0.387348 1.342176 -0.036998 4.232633 -1.610237 -2.155387 -2.530828 -11.669245 4.159846 0.000000 0.000000 0.000000 0.000000 0.000000 0.000000 -0.503943 0.370466 7.201779 0.907480 0.615417 0.311717 4.505257 16.646351 -6.011767 0.000000 0.000000 0.000000 0.350728 2.085556 7.342492 -1.067213 -1.591526 -0.173855 -0.295276 -4.471175 -0.385728 0.000000 0.000000 0.000000
-6.616375 85.235316 376.868741 0.596203 -0.614818 -7.280727 -0.669341 0.534268 7.287046 0.627526 -0.567668 0.046248 0.287950 -0.155383 0.051405 0.000000 0.000000 0.000000 -0.485921 1.978136 -0.358224 0.571434 -6.455027 -0.861014 -4.654282 0.253691 -0.228091 4.065560 6.595377 1.819497 0.000000 0.000000 0.000000 0.000000 0.000000 0.000000 -0.627098 0.568140 -0.040030 -0.621870 1.834245 -0.013866 5.867292 -2.465825 -2.736290 -3.392169 -14.462747 5.416091 0.000000 0.000000 0.000000 0.000000 0.000000 0.000000 -0.437225 -0.509478 7.417576 1.200012 1.916111 0.287846 6.273596 21.129125 -8.227735 0.000000 0.000000 0.000000 0.541279 3.007069 7.476998 -1.347162 -3.174065 -0.177368 -0.707186 -6.522795 -0.660572 0.000000 0.000000 0.000000
-6.935227 85.172910 377.019504 0.682900 -0.778106 -7.254105 -0.046194 0.099470 7.277023 0.043539 -0.053252 0.028726 0.543260 -0.264291 0.082033 0.000000 0.000000 0.000000 -0.279008 2.468241 -0.419052 0.418472 -8.111671 -1.083657 -4.997174 1.050375 -0.097178 4.367825 6.799335 1.928029 0.000000 0.000000 0.000000 0.000000 0.000000 0.000000 -0.692597 0.727406 -0.042901 -0.885274 2.215061 0.035988 7.238295 -3.343604 -3.040304 -4.149209 -16.062531 6.230705 0.000000 0.000000 0.000000 0.000000 0.000000 0.000000 -0.483030 -0.603701 7.425224 1.512530 2.357165 0.356659 7.387487 23.373814 -9.643377 0.000000 0.000000 0.000000 0.749871 3.845705 7.491257 -1.320606 -3.844388 -0.101883 -1.456114 -9.997785 -1.019730 0.000000 0.000000 0.000000
-7.197650 85.107031 377.149679 0.713730 -0.920590 -7.118777 -0.071827 0.106527 7.142753 0.031706 -0.065135 0.028112 0.878316 -0.401860 0.119419 0.000000 0.000000 0.000000 0.112767 2.853950 -0.448807 0.091980 -9.504941 -1.288801 -4.995493 1.938516 0.013672 4.412175 6.289750 1.886734 0.000000 0.000000 0.000000 0.000000 0.000000 0.000000 -0.686683 0.871661 -0.041144 -1.179056 2.488614 0.112093 8.376007 -4.247028 -3.090041 -4.848414 -16.758305 6.644304 0.000000 0.000000 0.000000 0.000000 0.000000 0.000000 -0.480493 -0.658577 7.317333 1.779982 2.697340 0.415474 7.739902 23.627536 -10.167795 0.000000 0.000000 0.000000 0.981214 4.599979 7.386567 -1.058504 -4.325162 0.050292 -2.506022 -14.266288 -1.477737 0.000000 0.000000 0.000000
-7.410589 85.018131 377.304948 0.625103 -1.048106 -6.856152 -0.099676 0.114478 6.876437 0.002115 -0.062993 0.021410 1.524762 -0.614242 0.172183 0.000000 0.000000 0.000000 0.642485 3.085875 -0.442720 -0.239546 -10.967340 -1.559712 -4.250579 2.896503 -0.307169 4.439739 4.725249 1.681343 0.000000 0.000000 0.000000 0.000000 0.000000 0.000000 -0.467917 1.810488 0.083486 -1.326019 1.849044 -0.015519 9.063662 -5.655794 -2.411725 -5.318225 -16.849283 6.340951 0.000000 0.000000 0.000000 0.000000 0.000000 0.000000 -0.416554 -0.613429 7.063141 2.130196 2.838108 0.504870 6.039187 16.997252 -8.072235 0.000000 0.000000 0.000000 1.282164 5.481510 7.146766 -0.345886 -4.809464 0.360078 -4.418582 -21.741961 -2.397984 0.000000 0.000000 0.000000
-7.570565 84.923294 377.398012 0.600016 -1.137107 -6.468634 -0.135137 0.105643 6.487399 -0.032038 -0.073991 0.016673 1.443761 -0.703219 0.205881 0.000000 0.000000 0.000000 1.348142 3.173895 -0.393818 -0.959645 -11.873750 -1.758957 -3.414144 4.046931 -0.386238 4.293797 1.829239 1.059533 0.000000 0.000000 0.000000 0.000000 0.000000 0.000000 0.137643 2.089174 0.164703 -2.411145 1.844777 0.076722 10.632868 -6.547047 -2.575270 -5.827232 -16.955928 6.528533 0.000000 0.000000 0.000000 0.000000 0.000000 0.000000 -0.387273 -0.581780 6.684331 2.339730 2.852849 0.561992 4.643262 13.765353 -6.849301 0.000000 0.000000 0.000000 1.528518 6.116379 6.774794 0.498682 -5.002273 0.722226 -6.737471 -29.659307 -3.519156 0.000000 0.000000 0.000000
-7.679913 84.856438 377.447125 0.515126 -1.213349 -5.991222 -0.178876 0.099790 6.005794 -0.059339 -0.081238 0.009642 2.152745 -0.981905 0.266269 0.000000 0.000000 0.000000 2.384124 3.130595 -0.296212 -2.151425 -12.038988 -1.831347 -1.335758 5.319363 -0.790511 2.231288 -0.375190 1.107880 0.000000 0.000000 0.000000 0.000000 0.000000 0.000000 0.940855 2.420366 0.268384 -3.587222 1.618904 0.134538 11.200777 -7.361252 -2.106289 -6.239132 -16.871977 6.248301 0.000000 0.000000 0.000000 0.000000 0.000000 0.000000 -0.254267 -0.550429 6.218558 2.417256 2.904752 0.587381 3.470746 11.856602 -5.988532 0.000000 0.000000 0.000000 1.827076 6.549944 6.303852 1.332614 -4.960537 1.073678 -9.220802 -36.945644 -4.793189 0.000000 0.000000 0.000000
-7.694837 84.803233 377.454845 0.215086 -1.321416 -5.296077 -0.258294 0.074088 5.296552 -0.094592 -0.100281 -0.008222 3.504362 -1.014685 0.309878 0.000000 0.000000 0.000000 3.423831 3.266960 -0.234449 -2.962316 -12.181113 -1.867128 -1.035238 6.022049 -0.567956 1.472436 -3.347827 0.514580 0.000000 0.000000 0.000000 0.000000 0.000000 0.000000 2.103522 2.773987 0.385868 -4.677147 1.379837 0.119953 10.760518 -8.039972 -1.150282 -6.685559 -15.945525 5.531910 0.000000 0.000000 0.000000 0.000000 0.000000 0.000000 0.103651 -0.448726 5.529316 2.360591 2.992935 0.577570 2.291809 10.497747 -5.178366 0.000000 0.000000 0.000000 2.305727 6.751870 5.598423 2.074437 -4.513991 1.354314 -11.339241 -42.009919 -5.872118 0.000000 0.000000 0.000000
